<svg width="1200" height="900" viewBox="0 0 1200 900" fill="none" xmlns="http://www.w3.org/2000/svg">
  <defs>
    <linearGradient id="bgGradient" x1="120" y1="80" x2="1100" y2="860" gradientUnits="userSpaceOnUse">
      <stop offset="0" stop-color="#071126" />
      <stop offset="0.5" stop-color="#0F2A54" />
      <stop offset="1" stop-color="#0B5FA5" />
    </linearGradient>
    <linearGradient id="panelGradient" x1="220" y1="170" x2="980" y2="760" gradientUnits="userSpaceOnUse">
      <stop offset="0" stop-color="#0D1E3D" stop-opacity="0.9" />
      <stop offset="1" stop-color="#09152B" stop-opacity="0.85" />
    </linearGradient>
    <linearGradient id="lineGradient" x1="320" y1="600" x2="920" y2="340" gradientUnits="userSpaceOnUse">
      <stop offset="0" stop-color="#22D3EE" />
      <stop offset="1" stop-color="#34D399" />
    </linearGradient>
    <filter id="softBlur" x="-200" y="-200" width="1600" height="1300" color-interpolation-filters="sRGB">
      <feGaussianBlur stdDeviation="60" />
    </filter>
    <filter id="drop" x="170" y="120" width="860" height="680" color-interpolation-filters="sRGB">
      <feOffset dy="18" />
      <feGaussianBlur stdDeviation="16" />
      <feColorMatrix type="matrix" values="0 0 0 0 0 0 0 0 0 0.02 0 0 0 0 0.08 0 0 0 0.4 0" />
      <feBlend in2="SourceGraphic" mode="normal" />
    </filter>
  </defs>

  <rect width="1200" height="900" fill="url(#bgGradient)" />

  <circle cx="240" cy="180" r="170" fill="#22D3EE" fill-opacity="0.2" filter="url(#softBlur)" />
  <circle cx="980" cy="760" r="190" fill="#34D399" fill-opacity="0.16" filter="url(#softBlur)" />
  <circle cx="980" cy="210" r="130" fill="#818CF8" fill-opacity="0.2" filter="url(#softBlur)" />

  <g filter="url(#drop)">
    <rect x="220" y="170" width="760" height="560" rx="30" fill="url(#panelGradient)" stroke="#94A3B8" stroke-opacity="0.2" />
  </g>

  <rect x="260" y="220" width="260" height="52" rx="14" fill="#0F294F" stroke="#60A5FA" stroke-opacity="0.35" />
  <text x="390" y="252" text-anchor="middle" font-family="Avenir, Segoe UI, Arial, sans-serif" font-size="20" font-weight="700" fill="#C7D2FE">CoinPulse Live</text>

  <g opacity="0.35" stroke="#93C5FD" stroke-width="1">
    <line x1="320" y1="340" x2="920" y2="340" />
    <line x1="320" y1="410" x2="920" y2="410" />
    <line x1="320" y1="480" x2="920" y2="480" />
    <line x1="320" y1="550" x2="920" y2="550" />
    <line x1="320" y1="620" x2="920" y2="620" />
  </g>

  <g opacity="0.25" stroke="#60A5FA" stroke-width="1">
    <line x1="380" y1="320" x2="380" y2="640" />
    <line x1="470" y1="320" x2="470" y2="640" />
    <line x1="560" y1="320" x2="560" y2="640" />
    <line x1="650" y1="320" x2="650" y2="640" />
    <line x1="740" y1="320" x2="740" y2="640" />
    <line x1="830" y1="320" x2="830" y2="640" />
  </g>

  <polyline points="330,590 390,560 450,575 510,520 570,538 630,470 690,495 750,430 810,445 870,380 920,395" fill="none" stroke="url(#lineGradient)" stroke-width="8" stroke-linecap="round" stroke-linejoin="round" />

  <g>
    <circle cx="920" cy="395" r="12" fill="#34D399" />
    <circle cx="920" cy="395" r="22" fill="#34D399" fill-opacity="0.25" />
  </g>

  <rect x="320" y="690" width="190" height="24" rx="12" fill="#0B2550" />
  <rect x="320" y="690" width="142" height="24" rx="12" fill="#22D3EE" />
  <text x="540" y="708" font-family="Avenir, Segoe UI, Arial, sans-serif" font-size="18" font-weight="700" fill="#BAE6FD">+21.7% 7D</text>

  <g>
    <rect x="760" y="220" width="160" height="70" rx="18" fill="#0C2A54" stroke="#60A5FA" stroke-opacity="0.45" />
    <text x="840" y="247" text-anchor="middle" font-family="Avenir, Segoe UI, Arial, sans-serif" font-size="16" fill="#BFDBFE">BTC</text>
    <text x="840" y="273" text-anchor="middle" font-family="Avenir, Segoe UI, Arial, sans-serif" font-size="22" font-weight="700" fill="#F8FAFC">$102,784</text>
  </g>

  <g>
    <rect x="760" y="305" width="160" height="70" rx="18" fill="#0C2A54" stroke="#34D399" stroke-opacity="0.45" />
    <text x="840" y="332" text-anchor="middle" font-family="Avenir, Segoe UI, Arial, sans-serif" font-size="16" fill="#A7F3D0">ETH</text>
    <text x="840" y="358" text-anchor="middle" font-family="Avenir, Segoe UI, Arial, sans-serif" font-size="22" font-weight="700" fill="#F8FAFC">$5,481</text>
  </g>

  <g>
    <rect x="760" y="390" width="160" height="70" rx="18" fill="#0C2A54" stroke="#818CF8" stroke-opacity="0.45" />
    <text x="840" y="417" text-anchor="middle" font-family="Avenir, Segoe UI, Arial, sans-serif" font-size="16" fill="#C7D2FE">SOL</text>
    <text x="840" y="443" text-anchor="middle" font-family="Avenir, Segoe UI, Arial, sans-serif" font-size="22" font-weight="700" fill="#F8FAFC">$236</text>
  </g>

  <text x="320" y="300" font-family="Avenir, Segoe UI, Arial, sans-serif" font-size="34" font-weight="800" fill="#F8FAFC">Real-time Crypto Intelligence</text>
  <text x="320" y="328" font-family="Avenir, Segoe UI, Arial, sans-serif" font-size="18" fill="#93C5FD">Track momentum, price movement, and market sentiment in one dashboard.</text>
</svg>
