<svg width="1200" height="900" viewBox="0 0 1200 900" fill="none" xmlns="http://www.w3.org/2000/svg">
  <defs>
    <linearGradient id="summaryBg" x1="120" y1="80" x2="1100" y2="860" gradientUnits="userSpaceOnUse">
      <stop offset="0" stop-color="#0D1B2A" />
      <stop offset="0.5" stop-color="#1A3A52" />
      <stop offset="1" stop-color="#16365D" />
    </linearGradient>
    <linearGradient id="summaryPanel" x1="220" y1="170" x2="980" y2="760" gradientUnits="userSpaceOnUse">
      <stop offset="0" stop-color="#1C2A3E" stop-opacity="0.9" />
      <stop offset="1" stop-color="#0F1B28" stop-opacity="0.85" />
    </linearGradient>
    <linearGradient id="summaryAccent" x1="320" y1="640" x2="900" y2="360" gradientUnits="userSpaceOnUse">
      <stop offset="0" stop-color="#06B6D4" />
      <stop offset="0.5" stop-color="#3B82F6" />
      <stop offset="1" stop-color="#8B5CF6" />
    </linearGradient>
    <filter id="summaryBlur" x="-200" y="-200" width="1600" height="1300" color-interpolation-filters="sRGB">
      <feGaussianBlur stdDeviation="60" />
    </filter>
    <filter id="summaryShadow" x="150" y="120" width="900" height="700" color-interpolation-filters="sRGB">
      <feOffset dy="20" />
      <feGaussianBlur stdDeviation="16" />
      <feColorMatrix type="matrix" values="0 0 0 0 0.02 0 0 0 0 0.06 0 0 0 0 0.2 0 0 0 0.45 0" />
      <feBlend in2="SourceGraphic" mode="normal" />
    </filter>
  </defs>

  <rect width="1200" height="900" fill="url(#summaryBg)" />

  <circle cx="240" cy="180" r="170" fill="#06B6D4" fill-opacity="0.2" filter="url(#summaryBlur)" />
  <circle cx="980" cy="760" r="190" fill="#8B5CF6" fill-opacity="0.18" filter="url(#summaryBlur)" />
  <circle cx="980" cy="210" r="130" fill="#3B82F6" fill-opacity="0.2" filter="url(#summaryBlur)" />

  <g filter="url(#summaryShadow)">
    <rect x="190" y="150" width="820" height="610" rx="34" fill="url(#summaryPanel)" stroke="#0EA5E9" stroke-opacity="0.22" />
  </g>

  <rect x="240" y="198" width="260" height="48" rx="14" fill="#0F2438" stroke="#06B6D4" stroke-opacity="0.4" />
  <text x="370" y="228" text-anchor="middle" font-family="Avenir, Segoe UI, Arial, sans-serif" font-size="20" font-weight="700" fill="#CFFAFE">Summarist AI</text>

  <g>
    <rect x="240" y="282" width="270" height="280" rx="22" fill="#0F1B28" stroke="#3B82F6" stroke-opacity="0.32" />
    <text x="260" y="310" font-family="Avenir, Segoe UI, Arial, sans-serif" font-size="13" font-weight="600" fill="#93C5FD">ORIGINAL TEXT</text>
    <rect x="260" y="325" width="230" height="8" rx="4" fill="#1E3A5F" />
    <rect x="260" y="340" width="220" height="8" rx="4" fill="#1E3A5F" />
    <rect x="260" y="355" width="215" height="8" rx="4" fill="#1E3A5F" />
    <rect x="260" y="370" width="200" height="8" rx="4" fill="#1E3A5F" />
    <rect x="260" y="385" width="210" height="8" rx="4" fill="#1E3A5F" />
    <circle cx="375" cy="430" r="20" fill="#06B6D4" fill-opacity="0.25" />
    <circle cx="375" cy="430" r="16" fill="none" stroke="#06B6D4" stroke-width="2" />
    <path d="M368 430 L373 435 L383 425" stroke="#06B6D4" stroke-width="2" stroke-linecap="round" stroke-linejoin="round" />
    <text x="260" y="485" font-family="Avenir, Segoe UI, Arial, sans-serif" font-size="12" fill="#7DD3FC">1,240 words</text>
  </g>

  <g>
    <path d="M 540 320 L 560 320 L 575 290 L 590 280 M 600 320 L 620 320" stroke="#3B82F6" stroke-width="3" stroke-linecap="round" stroke-linejoin="round" fill="none" opacity="0.6" />
    <circle cx="570" cy="300" r="8" fill="#3B82F6" opacity="0.7" />
  </g>

  <g>
    <rect x="690" y="282" width="310" height="280" rx="22" fill="#0F1B28" stroke="#06B6D4" stroke-opacity="0.35" />
    <text x="710" y="310" font-family="Avenir, Segoe UI, Arial, sans-serif" font-size="13" font-weight="600" fill="#CFFAFE">AI SUMMARY</text>
    <rect x="710" y="325" width="280" height="8" rx="4" fill="#06B6D4" fill-opacity="0.7" />
    <rect x="710" y="340" width="275" height="8" rx="4" fill="#06B6D4" fill-opacity="0.6" />
    <rect x="710" y="355" width="270" height="8" rx="4" fill="#06B6D4" fill-opacity="0.5" />
    <rect x="710" y="370" width="265" height="8" rx="4" fill="#06B6D4" fill-opacity="0.4" />
    <circle cx="845" cy="430" r="20" fill="#06B6D4" fill-opacity="0.3" />
    <circle cx="845" cy="430" r="16" fill="none" stroke="#06B6D4" stroke-width="2" />
    <path d="M838 430 L843 435 L853 425" stroke="#06B6D4" stroke-width="2" stroke-linecap="round" stroke-linejoin="round" />
    <text x="710" y="485" font-family="Avenir, Segoe UI, Arial, sans-serif" font-size="12" fill="#7DD3FC">280 words (77% reduction)</text>
  </g>

  <rect x="240" y="600" width="760" height="90" rx="20" fill="#0F2438" stroke="#8B5CF6" stroke-opacity="0.3" />
  <text x="260" y="630" font-family="Avenir, Segoe UI, Arial, sans-serif" font-size="14" font-weight="700" fill="#C4B5FD">KEY INSIGHTS</text>
  <circle cx="280" cy="660" r="4" fill="#06B6D4" />
  <text x="295" y="665" font-family="Avenir, Segoe UI, Arial, sans-serif" font-size="12" fill="#E0F2FE">Main topic extracted</text>
  <circle cx="550" cy="660" r="4" fill="#8B5CF6" />
  <text x="565" y="665" font-family="Avenir, Segoe UI, Arial, sans-serif" font-size="12" fill="#EDE9FE">Sentiment analyzed</text>
  <circle cx="800" cy="660" r="4" fill="#3B82F6" />
  <text x="815" y="665" font-family="Avenir, Segoe UI, Arial, sans-serif" font-size="12" fill="#DBEAFE">Key entities found</text>

  <text x="240" y="110" font-family="Avenir, Segoe UI, Arial, sans-serif" font-size="40" font-weight="800" fill="#F8FAFC">Knowledge Distilled</text>
  <text x="240" y="138" font-family="Avenir, Segoe UI, Arial, sans-serif" font-size="18" fill="#BFDBFE">Transform lengthy articles into actionable summaries powered by advanced NLP and AI.</text>
</svg>
